#!OML:ASF E:/inclinewalkrobotboard/Project1/Captureday1/Session1/subject1.ASF
:FULLY-SPECIFIED
:DEGREES
251
root 0 0 0 -0.5142459315569495 -3.015014968291562 -0.1998381937733945
lowerback 11.214272866383991 0.634336743597522 0.4004042370807823
upperback -1.9339189205570337 0.927496250043699 0.5004150940197218
thorax -8.365111793441681 0.43190512038583145 0.11261507897690232
lowerneck -11.43067932417296 -0.6376914181281428 1.3387376218768055
upperneck 18.860833897883953 -0.2625491128629349 -3.886873448363362
head 7.826723220988931 -0.3198327427977207 -1.565288990210933
rclavicle -5.492477272483086E-16 -6.188584967292772E-16
rhumerus -0.5965715569952721 0.8621176247501126 -60.25505917304467
rradius 53.27369677106081
rwrist 17.420211599112303
rhand -27.21799850446394 -23.319387520058363
rfingers 7.125019999999924
rthumb -0.8129393184997613 -53.457583267344205
lclavicle -4.899840340916532E-16 -6.926781701463617E-16
lhumerus -1.3127180588714324 -6.920942787844443 60.5007434586512
lradius 52.6239590498209
lwrist -11.122894535177121
lhand -37.26386810277793 -31.18815330577987
lfingers 7.12501999999992
lthumb -10.366757291714258 -1.634153258266032
rfemur -21.406449222593928 -0.35503313297982997 19.526026717166044
rtibia 50.64366258282709
rfoot -22.809803991847623 -13.87321139822303
rtoes -12.269831291644724
lfemur -23.1049572687377 1.5417971832804311 -18.144621023425472
ltibia 50.097338165279965
lfoot -25.924565807431698 -3.6521810123728597
ltoes -16.699105600292807
252
root 0 0 0 -0.514279974755984 -3.015004052211481 -0.19987275048310682
lowerback 11.214259586904623 0.634331211831615 0.400411129467818
upperback -1.9338747014653048 0.9274917561035279 0.5004350853584818
thorax -8.365055788320689 0.4319035195642531 0.11263344572531203
lowerneck -11.430773250201138 -0.6377303909584047 1.3386801165940303
upperneck 18.860840412536213 -0.26260869388637964 -3.8867966380073975
head 7.826741302646549 -0.3198588670244722 -1.5652604919727304
rclavicle -5.492536409914587E-16 -6.188521992207542E-16
rhumerus -0.597040383445913 0.8618079619821746 -60.25533905927309
rradius 53.27326670605543
rwrist 17.419996907182135
rhand -27.21784230596702 -23.318640752039073
rfingers 7.125019999999924
rthumb -0.8127932640410269 -53.45684493865332
lclavicle -4.899858758479929E-16 -6.9267550503704675E-16
lhumerus -1.3129974462070955 -6.920876711635964 60.50094175763688
lradius 52.62374305267415
lwrist -11.122747850543291
lhand -37.26377406297655 -31.187662232928716
lfingers 7.12501999999992
lthumb -10.366667462134505 -1.6336574273670799
rfemur -21.406507622885613 -0.3550667983429445 19.525980469692996
rtibia 50.643734789553726
rfoot -22.809903486246675 -13.873260307089641
rtoes -12.269936699211382
lfemur -23.104843118642407 1.5417696863866686 -18.144633221114844
ltibia 50.097202494468696
lfoot -25.924407116600662 -3.652175892481632
ltoes -16.699002901989576
253
root 0 0 0 -0.5143122385089188 -3.0149935776511287 -0.19990539333268864
lowerback 11.214246998715995 0.6343258867184303 0.40041757430504193
upperback -1.9338327677295695 0.9274874109252047 0.5004540618965583
thorax -8.365002728083173 0.4319019827335875 0.11265094117732638
lowerneck -11.430862265809186 -0.637767256574486 1.338625614303012
upperneck 18.860846578120444 -0.26266512555264354 -3.8867238855949187
head 7.826758431818357 -0.319883632546399 -1.5652334909408487
rclavicle -5.492591033901771E-16 -6.188464762971948E-16
rhumerus -0.5974674717089421 0.8615258030439943 -60.255593938606275
rradius 53.27287496895448
rwrist 17.41980147184525
rhand -27.21770005444866 -23.317960596144644
rfingers 7.125019999999924
rthumb -0.8126602839258847 -53.45617264833396
lclavicle -4.89987182915882E-16 -6.926732051335736E-16
lhumerus -1.3132276800252054 -6.920822433191942 60.50110549624031
lradius 52.62356511172485
lwrist -11.122626793324129
lhand -37.2636964719382 -31.187257226490573
lfingers 7.12501999999992
lthumb -10.366593369474298 -1.6332483599000334
rfemur -21.40656477168087 -0.35509964173237796 19.525935283493734
rtibia 50.64380508008733
rfoot -22.810000722808546 -13.873308122896786
rtoes -12.270039700506086
lfemur -23.104740815113466 1.541745105828179 -18.144644249939418
ltibia 50.0970815230486
lfoot -25.924265296399383 -3.6521714405953194
ltoes -16.698911289503044
254
root 0 0 0 -0.5143429674106238 -3.014983551356776 -0.19993646020249434
lowerback 11.214235009134317 0.634320780838384 0.40042369676583633
upperback -1.933792810525885 0.927483244266516 0.5004721559414103
thorax -8.364952202551738 0.4319005106932899 0.1126676377508039
lowerneck -11.430947055347445 -0.6378023467167232 1.3385736930469667
upperneck 18.86085245565543 -0.2627188660691926 -3.886654615138817
head 7.826774748017508 -0.31990722579002245 -1.5652077728832743
rclavicle -5.492641706992408E-16 -6.188412309756075E-16
rhumerus -0.5978593458821191 0.8612668670939208 -60.25582774860962
rradius 53.27251554700347
rwrist 17.419622242856676
rhand -27.217569556995347 -23.31733660367223
rfingers 7.125019999999924
rthumb -0.8125383137484259 -53.45555598421561
lclavicle -4.899881528201926E-16 -6.926711671923589E-16
lhumerus -1.3134239843510276 -6.920776276251347 60.501245334356895
lradius 52.6234134394131
lwrist -11.122523449090178
lhand -37.263630248779215 -31.18691168048869
lfingers 7.12501999999992
lthumb -10.366530149630346 -1.632899261249424
rfemur -21.40661750804755 -0.35512980252729465 19.525893694439524
rtibia 50.64386947974347
rfoot -22.810090133960827 -13.87335212653214
rtoes -12.270134418323405
lfemur -23.10465044216874 1.54172344394629 -18.144654060910636
ltibia 50.09697517042582
lfoot -25.924140323762128 -3.6521676231176246
ltoes -16.698830694011882
255
root 0 0 0 -0.5143722703768372 -3.014974000601487 -0.19996612445155304
lowerback 11.214223577544962 0.6343159150007246 0.4004295715987896
upperback -1.933754696036145 0.9274792863244993 0.5004894219720821
thorax -8.364904026332665 0.431899107401219 0.11268355086444964
lowerneck -11.431027924999228 -0.637835823072456 1.338524163932687
upperneck 18.86085807515269 -0.2627701270673024 -3.886588562681424
head 7.826790315432612 -0.31992972895132554 -1.5651832403341723
rclavicle -5.492688831882118E-16 -6.188363897828899E-16
rhumerus -0.5982209691583247 0.8610278986311304 -60.2560434857743
rradius 53.27218386705875
rwrist 17.41945689716063
rhand -27.217449144838326 -23.316760823479697
rfingers 7.125019999999924
rthumb -0.8124257818332086 -53.45498702030307
lclavicle -4.899889408434407E-16 -6.92669312111895E-16
lhumerus -1.3135982559019919 -6.920735366499901 60.50136959965175
lradius 52.62327882269524
lwrist -11.122431634748839
lhand -37.263571423656906 -31.186604805116616
lfingers 7.12501999999992
lthumb -10.366474001906084 -1.6325891936544927
rfemur -21.406663741441058 -0.35515606229919516 19.525857370788163
rtibia 50.6439253988979
rfoot -22.810168062332558 -13.873390529026729
rtoes -12.27021699177877
lfemur -23.10457162027837 1.5417045929397764 -18.144662661982164
ltibia 50.09688282155557
lfoot -25.92403155128721 -3.6521643882923764
ltoes -16.698760649172588
256
root 0 0 0 -0.5144001640671103 -3.014964961534331 -0.19999444229800334
lowerback 11.214212698578557 0.6343113124802208 0.400435234821945
upperback -1.9337184088767074 0.9274755639130614 0.5005058622562869
thorax -8.36485816735416 0.4318977782263945 0.11269866072873586
lowerneck -11.43110492327758 -0.6378677286354492 1.3384769970231314
upperneck 18.860863444725222 -0.26281895074661343 -3.88652567788724
head 7.826805146480657 -0.319951153442364 -1.5651598757719452
rclavicle -5.492732691271398E-16 -6.188318987433232E-16
rhumerus -0.5985560234298397 0.8608064828745672 -60.25624337278037
rradius 53.271876538284175
rwrist 17.419303710742945
rhand -27.217337580066047 -23.316227356508413
rfingers 7.125019999999924
rthumb -0.8123215220275957 -53.45445987594959
lclavicle -4.899896621461673E-16 -6.926675824738829E-16
lhumerus -1.3137593036050639 -6.920697574779263 60.50148445711103
lradius 52.623154438315865
lwrist -11.12234677294024
lhand -37.2635170573352 -31.18632120666856
lfingers 7.12501999999992
lthumb -10.366422112162269 -1.6323026528788525
rfemur -21.40670231357491 -0.3551777590277019 19.525827227310895
rtibia 50.64397144525847
rfoot -22.810232507570653 -13.873422348983699
rtoes -12.27028530922598
lfemur -23.10450361913019 1.5416883626999145 -18.144670106107448
ltibia 50.096803467331675
lfoot -25.923937866398628 -3.652161672851326
ltoes -16.698700395467938
257
root 0 0 0 -0.5144266096699944 -3.014956470360848 -0.20002139407068142
lowerback 11.21420238789296 0.6343069947790274 0.40044069457118114
upperback -1.93368400428034 0.9274720979926744 0.5005214484161444
thorax -8.364814686234553 0.4318965286201669 0.11271293007094674
lowerneck -11.431177943224155 -0.637898031854786 1.3384322584449395
upperneck 18.860868558483357 -0.2628652756019936 -3.886466040383275
head 7.826819221880149 -0.31997146821096845 -1.5651377103069617
rclavicle -5.492773482935094E-16 -6.188277193954575E-16
rhumerus -0.5988671810357058 0.8606008666654628 -60.25642902153561
rradius 53.271591101834034
rwrist 17.41916143334086
rhand -27.217233964740856 -23.315731922151834
rfingers 7.125019999999924
rthumb -0.8122246885708182 -53.45397028581321
lclavicle -4.899903957833701E-16 -6.926659394552712E-16
lhumerus -1.3139132097022355 -6.920661430647614 60.50159416320293
lradius 52.62303557380056
lwrist -11.122265703521704
lhand -37.263465120320845 -31.186050255467435
lfingers 7.12501999999992
lthumb -10.366372537221917 -1.63202893154088
rfemur -21.40673283606523 -0.3551946877655414 19.52580355832241
rtibia 50.644007207798595
rfoot -22.81028283223111 -13.87344726983427
rtoes -12.270338697909569
lfemur -23.104445466698163 1.5416745074434122 -18.144676479194867
ltibia 50.09673583749809
lfoot -25.92385784334017 -3.6521594078185675
ltoes -16.698648979075262
